# xmcd CD database file
#
# Track frame offsets:
#	150
#	23357
#	45020
#	71983
#	95933
#	115849
#	137401
#	161178
#	181480
#	203796
#	229143
#	245564
#	269904
#
# Disc length: 3965 seconds
#
# Revision: 0
# Processed by: cddbd v1.5.1PL2 Copyright (c) Steve Scherf et al.
# Submitted via: CDex 1.51
#
DISCID=ba0f7b0d
DTITLE=Zero 7 - Simple Things
DYEAR=2000
DGENRE=Jazz
TTITLE0=End Theme
TTITLE1=Polaris
TTITLE2=Destiny
TTITLE3=Give It Away
TTITLE4=Simple Things
TTITLE5=Red Dust
TTITLE6=Distractions
TTITLE7=Simple Things II
TTITLE8=Out Of Town
TTITLE9=This world
TTITLE10=End Theme II
TTITLE11=Spinning Dub
TTITLE12=Monday Night
EXTD=YEAR: 2000
EXTT0=
EXTT1=
EXTT2=
EXTT3=
EXTT4=
EXTT5=
EXTT6=
EXTT7=
EXTT8=
EXTT9=
EXTT10=
EXTT11=
EXTT12=
PLAYORDER=
